<svg height="512" viewBox="0 0 60 60" width="512" xmlns="http://www.w3.org/2000/svg"><g id="Page-1" fill="none" fill-rule="evenodd"><g id="059---Write-Email" fill-rule="nonzero"><rect id="Rectangle-path" fill="#cad9fc" height="58" rx="4" width="46" x="1" y="1"/><rect id="Rectangle-path" fill="#e8edfc" height="58" rx="4" width="43" x="1" y="1"/><path id="Shape" d="m14 1v9c0 2.209139-1.790861 4-4 4h-9z" fill="#a4c2f7"/><path id="Shape" d="m49.56 31.25c-2.9054234 2.9121549-6.109804 5.5098484-9.56 7.75l-5-5c2.1259201-3.5401881 4.6379444-6.8336566 7.49-9.82 4.73-4.74 9.59-8.11 12.81-9.12 1.47-.47 2.6-.44 3.21.17 1.95 1.95-2.06 9.13-8.95 16.02z" fill="#a4c2f7"/><path id="Shape" d="m46.56 31.25c-2.4047842 2.3892705-4.9963376 4.5828951-7.75 6.56l-3.81-3.81c2.1259201-3.5401881 4.6379444-6.8336566 7.49-9.82 4.73-4.74 9.59-8.11 12.81-9.12.0761845.0485693.1466321.1055984.21.17 1.95 1.95-2.06 9.13-8.95 16.02z" fill="#cad9fc"/><path id="Shape" d="m40.12 39.27-1.41 1.42c-.3930079.3899779-1.0269921.3899779-1.42 0l-1.18-1.18-3.06-3.07c-.1873019-.1868054-.2925688-.440466-.2925688-.705s.1052669-.5181946.2925688-.705l1.41-1.41c.0538414-.0583388.1183302-.1058568.19-.14.3907439-.2533944.9061965-.194725 1.23.14l4.24 4.24c.1872527.1868315.2924856.4404824.2924856.705s-.1052329.5181685-.2924856.705z" fill="#7facfa"/><path id="Shape" d="m37.71 37.95-1.42 1.41c-.0549498.0557667-.1152386.1060073-.18.15l-3.06-3.07c-.1873019-.1868054-.2925688-.440466-.2925688-.705s.1052669-.5181946.2925688-.705l1.41-1.41c.0538414-.0583388.1183302-.1058568.19-.14l3.06 3.06c.1872527.1868315.2924856.4404824.2924856.705s-.1052329.5181685-.2924856.705z" fill="#a4c2f7"/><path id="Shape" d="m28.807 42.101 2.828 2.828 5.657-4.243-4.242-4.242z" fill="#a4c2f7"/><path id="Shape" d="m28.807 42.101-2.828 1.414-1.415 1.414-2.828 7.071 7.071-2.828 1.414-1.415 1.414-2.828z" fill="#e8edfc"/><path id="Shape" d="m4 55v-50c-.00029188-1.06095541.42104175-2.07854066 1.17125054-2.82874946.7502088-.75020879 1.76779405-1.17154242 2.82874946-1.17125069l-3 .00000015c-1.06095541-.00029188-2.07854066.42104175-2.82874946 1.17125054-.75020879.7502088-1.17154242 1.76779405-1.17125054 2.82874946v50c-.00029188 1.0609554.42104175 2.0785407 1.17125054 2.8287495.7502088.7502088 1.76779405 1.1715424 2.82874946 1.1712505l3 .0000002c-1.06095541.0002917-2.07854066-.4210419-2.82874946-1.1712507-.75020879-.7502088-1.17154242-1.7677941-1.17125054-2.8287495z" fill="#fff"/><path id="Shape" d="m0 55v-13-37h2v37 13z" fill="#fff"/><g fill="#428dff"><path id="Shape" d="m1 50c-.55162365.0015928-.99840721.4483764-1 1v4h2v-4c-.0016474-.5516009-.44839907-.9983526-1-1z"/><path id="Shape" d="m2 5h-2v38c0 .5522847.44771525 1 1 1s1-.4477153 1-1z"/><path id="Shape" d="m0 47c.0039589.2647108.10750224.5182135.29.71l.15.12c.05575598.037828.116284.068092.18.09.05666008.0288933.11733597.0491186.18.06.06612874.0112482.13295338.0179306.2.02.26476698-.0036835.51836621-.1072663.71-.29.37745227-.398085.37745227-1.021915 0-1.42-.09566008-.0903288-.20765785-.1616001-.33-.21-.12022231-.051241-.24932274-.07842-.38-.08-.26469083.0040569-.51815919.1075862-.71.29-.18241381.1918408-.28594314.4453092-.29.71z"/><path id="Shape" d="m47 21.1c-.5522847 0-1-.4477153-1-1v-15.1c-.0018187-1.65610033-1.3438997-2.99818129-3-3h-38c-1.65610033.00181871-2.99818129 1.34389967-3 3 0 .55228475-.44771525 1-1 1s-1-.44771525-1-1c.00325114-2.76007596 2.23992404-4.99674886 5-5h38c2.760076.00325114 4.9967489 2.23992404 5 5v15.1c0 .5522847-.4477153 1-1 1z"/><path id="Shape" d="m43 60h-38c-2.76007596-.0032511-4.99674886-2.239924-5-5 0-.5522847.44771525-1 1-1s1 .4477153 1 1c.00181871 1.6561003 1.34389967 2.9981813 3 3h38c1.6561003-.0018187 2.9981813-1.3438997 3-3v-21.08c0-.5522847.4477153-1 1-1s1 .4477153 1 1v21.08c-.0032511 2.760076-2.239924 4.9967489-5 5z"/><path id="Shape" d="m10 15h-9c-.4043959-.0000863-.76893405-.2437275-.92367798-.6173454-.15474393-.373618-.06922994-.8036603.21667798-1.0896546l13-13c.2859943-.28590792.7160366-.37142191 1.0896546-.21667798.3736179.15474393.6172591.51928208.6173454.92367798v9c-.0032511 2.760076-2.239924 4.9967489-5 5zm-6.5859-2h6.5859c1.6561003-.0018187 2.9981813-1.3438997 3-3v-6.5859z"/><path id="Shape" d="m40.6982 39.4482c-.44782.0003014-.8412413-.297157-.9630006-.7281066-.1217592-.4309496.0578338-.8903058.4396006-1.1243934 3.1491707-2.0178528 6.0605017-4.384737 8.6787-7.0557 7.6172-7.6191 9.9053-13.6425 8.9453-14.6025s-6.9863 1.3291-14.6025 8.9453c-2.6711502 2.6181868-5.0382346 5.5295164-7.0563 8.6787-.1835293.3112417-.5206836.4992726-.8819305.4918524-.3612469-.0074201-.6903956-.2091371-.8609894-.5276527-.1705938-.3185155-.1560974-.7042855.0379199-1.0090997 2.100518-3.2831109 4.5653604-6.3183063 7.3476-9.0478 6.5518-6.5538 14.6416-11.7344 17.4307-8.9454 2.7851 2.7852-2.3916 10.877-8.9453 17.4307-2.7296184 2.7819213-5.7648777 5.2464593-9.048 7.3467-.1570163.0963034-.3376032.1473163-.5218.1474z"/><path id="Shape" d="m37.999 41.9785c-.5303431.00074-1.0391524-.2097285-1.414-.5849l-4.2422-4.2436c-.7802789-.7812395-.7802789-2.0468605 0-2.8281l1.414-1.4141c.7816834-.7792999 2.0465166-.7792999 2.8282 0l4.2431 4.2422c.778085.7819853.7785318 2.0455646.001 2.8281l-1.416 1.4151c-.3748314.3753053-.8836735.5859165-1.4141.5853zm-4.2422-6.2422 4.2422 4.2437 1.4151-1.4141-4.2432-4.2431-1.4141 1.414z"/><path id="Shape" d="m31.6357 45.9287c-.2652562.0002519-.5196822-.1051891-.707-.293l-2.8287-2.8281c-.3518268-.3517297-.3913834-.9086755-.0928-1.3066l4.2428-5.6572c.1735016-.232103.4394279-.3772034.7285-.3975.2897539-.0246377.5753162.0817648.7783.29l4.2422 4.2437c.2048432.2050176.3106666.4888203.2900618.7779023-.0206049.289082-.1656111.5550062-.3974618.7288977l-5.6562 4.2422c-.1728092.130116-.3833834.2002371-.5997.1997zm-1.5087-3.9219 1.603 1.6016 4.04-3.03-2.6113-2.6123z"/><path id="Shape" d="m49.3135 25.4229c-.404458-.0000055-.7690881-.2436476-.9238667-.6173184-.1547787-.3736708-.0692256-.8037838.2167667-1.0897816l.7071-.707c.3921753-.380397 1.01706-.3756228 1.4033774.0107219.3863173.3863446.3910473 1.0112297.0106226 1.4033781l-.707.707c-.187299.187839-.4417373.2932851-.707.293z"/><path id="Shape" d="m40.8281 33.9082c-.4043959-.0000863-.7689341-.2437275-.923678-.6173454-.1547439-.373618-.0692299-.8036603.216678-1.0896546l5.6562-5.6573c.2515115-.2579685.6223472-.3606993.9707473-.2689214.3484.0917778.6204963.3638741.7122741.7122741.0917779.3484001-.0109529.7192358-.2689214.9707473l-5.6562 5.6572c-.187336.1878448-.441807.2932896-.7071.293z"/><path id="Shape" d="m21.7363 53c-.4795316.0001286-.8916516-.340162-.9822561-.8110563-.0906045-.4708942.1658151-.9398181.6111561-1.1176437l6.88-2.752 1.1533-1.1543 1.3428-2.6836c.247037-.4940463.8478037-.6942869 1.34185-.44725.4940463.247037.6942869.8478037.44725 1.34185l-1.4151 2.8291c-.0480792.0962054-.1113961.1840048-.1875.26l-1.414 1.4141c-.095944.0957525-.2102253.1711577-.336.2217l-7.07 2.8281c-.118124.047307-.2442559.071413-.3715.071z"/><path id="Shape" d="m21.7363 53c-.3317874.0000355-.6419893-.1644941-.8280565-.4391972-.1860673-.2747032-.2237698-.6238074-.1006435-.9319028l2.8281-7.0713c.0505443-.1257442.1259501-.2399923.2217-.3359l1.4141-1.4141c.0760407-.0760505.1638309-.1393608.26-.1875l2.8282-1.414c.4940187-.2470094 1.0947406-.0467687 1.34175.44725s.0467687 1.0947406-.44725 1.34175l-2.6826 1.3418-1.1546 1.1531-2.752 6.8809c-.1517379.3799268-.5195928.6291111-.9287.6291z"/><path id="Shape" d="m27.39 47.34c-.1300348.0018519-.2591605-.0219344-.38-.07-.119737-.0522254-.2283611-.1269045-.32-.22-.0964046-.0888172-.1715941-.1981837-.22-.32-.051315-.1237021-.0784706-.2560854-.08-.39.00158-.1306773.028759-.2597777.08-.38.048415-.1218114.1236032-.2311761.22-.32.2370122-.2325826.5734502-.3333671.8992988-.2693968.3258485.0639703.5992122.2844704.7307012.5893968.0485468.1207005.0723511.2499236.07.38.0093497.2672545-.0962185.5257146-.29.71-.0933754.0956392-.2058041.1705916-.33.22-.1208395.0480656-.2499652.0718519-.38.07z"/><path id="Shape" d="m30 53h-24c-.55228475 0-1-.4477153-1-1s.44771525-1 1-1h24c.5522847 0 1 .4477153 1 1s-.4477153 1-1 1z"/><path id="Shape" d="m40 53h-6c-.5522847 0-1-.4477153-1-1s.4477153-1 1-1h6c.5522847 0 1 .4477153 1 1s-.4477153 1-1 1z"/><path id="Shape" d="m11 22h-4c-.55228475 0-1-.4477153-1-1s.44771525-1 1-1h4c.5522847 0 1 .4477153 1 1s-.4477153 1-1 1z"/><path id="Shape" d="m26 22h-10c-.5522847 0-1-.4477153-1-1s.4477153-1 1-1h10c.5522847 0 1 .4477153 1 1s-.4477153 1-1 1z"/><path id="Shape" d="m11 37h-4c-.55228475 0-1-.4477153-1-1s.44771525-1 1-1h4c.5522847 0 1 .4477153 1 1s-.4477153 1-1 1z"/><path id="Shape" d="m22 37h-6c-.5522847 0-1-.4477153-1-1s.4477153-1 1-1h6c.5522847 0 1 .4477153 1 1s-.4477153 1-1 1z"/><path id="Shape" d="m31 27h-24c-.55228475 0-1-.4477153-1-1s.44771525-1 1-1h24c.5522847 0 1 .4477153 1 1s-.4477153 1-1 1z"/><path id="Shape" d="m31 32h-24c-.55228475 0-1-.4477153-1-1s.44771525-1 1-1h24c.5522847 0 1 .4477153 1 1s-.4477153 1-1 1z"/></g></g></g></svg>