<svg height="512" viewBox="0 0 60 56" width="512" xmlns="http://www.w3.org/2000/svg"><g id="Page-1" fill="none" fill-rule="evenodd"><g id="058---Inbox" fill-rule="nonzero"><path id="Shape" d="m51.24 2.76c-1.1206228-1.13078315-2.6480066-1.76479149-4.24-1.76h-40c-3.31165334.00495634-5.99504366 2.68834666-6 6v32c-.00671788 1.5678826.60816801 3.0745328 1.71 4.19l.02.02c1.12384268 1.1478767 2.66356536 1.7933343 4.27 1.79h40c3.3118813-.004407 5.995593-2.6881187 6-6v-32c.0047915-1.59199344-.6292169-3.11937716-1.76-4.24z" fill="#f3d55b"/><path id="Shape" d="m51.24 2.76-.24.24-19.96 19.96-1.21 1.21c-1.5641916 1.5600038-4.0958084 1.5600038-5.66 0l-1.21-1.21-19.96-19.96-.24-.24c1.12062284-1.13078315 2.64800656-1.76479149 4.24-1.76h40c1.5919934-.00479149 3.1193772.62921685 4.24 1.76z" fill="#cad9fc"/><path id="Shape" d="m22.96 22.96-20 20-.23.25-.02-.02c-1.10183199-1.1154672-1.71671788-2.6221174-1.71-4.19v-32c-.00479149-1.59199344.62921685-3.11937716 1.76-4.24l.24.24z" fill="#a4c2f7"/><path id="Shape" d="m51.29 43.19c-1.1257254 1.1596246-2.6738382 1.8127911-4.29 1.81h-40c-1.60643464.0033343-3.14615732-.6421233-4.27-1.79l.23-.25 20-20 1.21 1.21c1.5641916 1.5600038 4.0958084 1.5600038 5.66 0l1.21-1.21 20 20z" fill="#a4c2f7"/><path id="Shape" d="m53 7v32c.0067179 1.5678826-.608168 3.0745328-1.71 4.19l-.25-.23-20-20 18.43-18.43 1.53-1.53.24-.24c1.1307831 1.12062284 1.7647915 2.64800656 1.76 4.24z" fill="#7facfa"/><path id="Shape" d="m50 7v32c.0020236.8303271-.1717882 1.6516729-.51 2.41l-18.45-18.45 18.43-18.43c.3505418.77619757.5312399 1.61831891.53 2.47z" fill="#a4c2f7"/><path id="Shape" d="m57.24 12.76c-1.1206228-1.1307831-2.6480066-1.7647915-4.24-1.76h-40c-3.31165334.0049563-5.99504366 2.6883467-6 6v32c-.00671788 1.5678826.60816801 3.0745328 1.71 4.19l.02.02c1.12384268 1.1478767 2.6635654 1.7933343 4.27 1.79h40c3.3118813-.004407 5.995593-2.6881187 6-6v-32c.0047915-1.5919934-.6292169-3.1193772-1.76-4.24z" fill="#f3d55b"/><path id="Shape" d="m57.24 12.76-.24.24-19.96 19.96-1.21 1.21c-1.5641916 1.5600038-4.0958084 1.5600038-5.66 0l-1.21-1.21-19.96-19.96-.24-.24c1.12062284-1.1307831 2.6480066-1.7647915 4.24-1.76h40c1.5919934-.0047915 3.1193772.6292169 4.24 1.76z" fill="#e8edfc"/><path id="Shape" d="m28.96 32.96-20 20-.23.25-.02-.02c-1.10183199-1.1154672-1.71671788-2.6221174-1.71-4.19v-32c-.00479149-1.5919934.62921685-3.1193772 1.76-4.24l.24.24z" fill="#e8edfc"/><path id="Shape" d="m57.29 53.19c-1.1257254 1.1596246-2.6738382 1.8127911-4.29 1.81h-40c-1.6064346.0033343-3.14615732-.6421233-4.27-1.79l.23-.25 20-20 1.21 1.21c1.5641916 1.5600038 4.0958084 1.5600038 5.66 0l1.21-1.21 20 20z" fill="#cad9fc"/><path id="Shape" d="m59 17v32c.0067179 1.5678826-.608168 3.0745328-1.71 4.19l-.25-.23-20-20 18.43-18.43 1.53-1.53.24-.24c1.1307831 1.1206228 1.7647915 2.6480066 1.76 4.24z" fill="#cad9fc"/><path id="Shape" d="m56 17v32c.0020236.8303271-.1717882 1.6516729-.51 2.41l-18.45-18.45 18.43-18.43c.3505418.7761976.5312399 1.6183189.53 2.47z" fill="#e8edfc"/><path id="Shape" d="m5.73 43.21-.02-.02c-1.10183199-1.1154672-1.71671788-2.6221174-1.71-4.19v-32c.00495634-3.31165334 2.68834666-5.99504366 6-6h-3c-3.31165334.00495634-5.99504366 2.68834666-6 6v32c-.00671788 1.5678826.60816801 3.0745328 1.71 4.19l.02.02c1.12384268 1.1478767 2.66356536 1.7933343 4.27 1.79-.2793082-.6867976-.71401939-1.2995007-1.27-1.79z" fill="#fff"/><path id="Shape" d="m53 56h-40c-3.8640516-.0046835-6.99531646-3.1359484-7-7v-32c.00468354-3.8640516 3.1359484-6.9953165 7-7h40c3.8640516.0046835 6.9953165 3.1359484 7 7v32c-.0046835 3.8640516-3.1359484 6.9953165-7 7zm-40-44c-2.760076.0032511-4.99674886 2.239924-5 5v32c.00325114 2.760076 2.239924 4.9967489 5 5h40c2.760076-.0032511 4.9967489-2.239924 5-5v-32c-.0032511-2.760076-2.239924-4.9967489-5-5z" fill="#428dff"/><path id="Shape" d="m33 36.3408c-1.3259433.0023332-2.5981655-.5237648-3.5352-1.4619l-21.1718-21.1719c-.37897221-.3923789-.37355237-1.0160848.01218142-1.4018186.3857338-.3857338 1.00943969-.3911536 1.40181858-.0121814l21.1719 21.1718c1.1720474 1.170011 3.0701526 1.170011 4.2422 0l21.1719-21.1718c.3923789-.3789722 1.0160848-.3735524 1.4018186.0121814s.3911536 1.0094397.0121814 1.4018186l-21.1718 21.1719c-.9370345.9381352-2.2092567 1.4642332-3.5352 1.4619z" fill="#428dff"/><path id="Shape" d="m8.9648 53.9648c-.4043959-.0000863-.76893405-.2437275-.92367798-.6173454-.15474393-.373618-.06922994-.8036603.21667798-1.0896546l19.9951-20.0049c.3919029-.3820936 1.0181666-.3781252 1.4051959.0089041s.3909977 1.013293.0089041 1.4051959l-19.9951 20.0049c-.18733364.1878363-.44181482.2932493-.7071.2929z" fill="#428dff"/><path id="Shape" d="m57.0352 53.9648c-.2652852.0003493-.5197664-.1050637-.7071-.2929l-19.9951-20.0049c-.3820936-.3919029-.3781252-1.0181666.0089041-1.4051959s1.013293-.3909977 1.4051959-.0089041l19.9951 20.0049c.2859079.2859943.3714219.7160366.216678 1.0896546-.1547439.3736179-.5192821.6172591-.923678.6173454z" fill="#428dff"/><path id="Shape" d="m0 39v-13-19h2v19 13z" fill="#fff"/><g fill="#428dff"><path id="Shape" d="m1 34c-.55162365.0015928-.99840721.4483764-1 1v4h2v-4c-.00159279-.5516236-.44837635-.9984072-1-1z"/><path id="Shape" d="m2 7h-2v20c0 .5522847.44771525 1 1 1s1-.4477153 1-1z"/><path id="Shape" d="m0 31c.0039589.2647108.10750224.5182135.29.71l.15.12c.05575598.037828.116284.068092.18.09.05666008.0288933.11733597.0491186.18.06.06612874.0112482.13295338.0179306.2.02.26476698-.0036835.51836621-.1072663.71-.29.37745227-.398085.37745227-1.021915 0-1.42-.09566008-.0903288-.20765785-.1616001-.33-.21-.12022231-.051241-.24932274-.07842-.38-.08-.26469083.0040569-.51815919.1075862-.71.29-.18241381.1918408-.28594314.4453092-.29.71z"/><path id="Shape" d="m7 46c-3.8640516-.0046835-6.99531646-3.1359484-7-7 0-.5522847.44771525-1 1-1s1 .4477153 1 1c.00325114 2.760076 2.23992404 4.9967489 5 5 .55228475 0 1 .4477153 1 1s-.44771525 1-1 1z"/><path id="Shape" d="m53 12c-.5522847 0-1-.4477153-1-1v-4c-.0044048-2.75959717-2.2404028-4.99559521-5-5h-40c-2.75959717.00440479-4.99559521 2.24040283-5 5 0 .35726559-.19059892.68739261-.5.8660254-.30940108.1786328-.69059892.1786328-1 0-.30940108-.17863279-.5-.50875981-.5-.8660254.00468354-3.8640516 3.1359484-6.99531646 7-7h40c3.8640516.00468354 6.9953165 3.1359484 7 7v4c0 .5522847-.4477153 1-1 1z"/><path id="Shape" d="m11.26 12.26c-.2652974.0003117-.5197765-.1051364-.7071-.293l-8.26-8.26c-.38039696-.39217528-.37562282-1.01706004.01072185-1.40337739s1.01122977-.3910473 1.40337815-.01062261l8.26 8.26c.2859079.2859943.3714219.7160366.216678 1.0896546-.1547439.3736179-.5192821.6172591-.923678.6173454z"/><path id="Shape" d="m43 12c-.4043959-.0000863-.7689341-.2437275-.923678-.6173454-.1547439-.373618-.0692299-.8036603.216678-1.0896546l8-8c.2510745-.25995658.6228779-.3642126.9725073-.27269716.3496295.09151544.6226744.3645604.7141899.71418984.0915154.34962943-.0127406.72143285-.2726972.97250732l-8 8c-.1872865.1878577-.4417329.2933072-.707.293z"/><path id="Shape" d="m2.96 43.96c-.40445803-.0000055-.76908808-.2436476-.92386673-.6173184s-.06922554-.8037838.21676673-1.0897816l4.04-4.04c.25151153-.2579685.62234718-.3606993.97074726-.2689214.34840008.0917778.62049629.3638741.71227417.7122741.09177787.3484001-.01095294.7192358-.26892143.9707473l-4.04 4.04c-.18729903.187839-.44173726.2932851-.707.293z"/></g></g></g></svg>