<svg height="512" viewBox="0 0 60 60" width="512" xmlns="http://www.w3.org/2000/svg"><g id="Page-1" fill="none" fill-rule="evenodd"><g id="003---Select-Email" fill-rule="nonzero"><path id="Shape" d="m58.27 24.48c-.172698-.2463564-.3741159-.471273-.6-.67l-11.19-10.03-.01-.01h-32.94l-.01.01-11.19 10.03c-.84132241.763081-1.32382812 1.844184-1.33 2.98v28.21c.00385309 2.207541 1.79245897 3.9961469 4 4h50c2.207541-.0038531 3.9961469-1.792459 4-4v-28.21c.0005774-.8268364-.2543888-1.6336474-.73-2.31z" fill="#f0c419"/><path id="Shape" d="m58.27 24.48-23.44 17.02-2.54 1.84c-1.3734716.9950195-3.2253154 1.0150611-4.62.05l-2.62-1.81-23.72-16.37c.22308789-.5363316.56501209-1.0150255 1-1.4l11.19-10.03.01-.01h32.94l.01.01 11.19 10.03c.2258841.198727.427302.4236436.6.67z" fill="#a4c2f7"/><path id="Shape" d="m25.05 41.58-22.68 16.43c-.87170949-.757073-1.37162562-1.8554289-1.37-3.01v-28.21c-.0026412-.544044.10981998-1.0824946.33-1.58z" fill="#e8edfc"/><path id="Shape" d="m57.63 58.01c-.7273468.6384446-1.662196.990346-2.63.99h-50c-.96780405.000346-1.90265323-.3515554-2.63-.99l22.68-16.43 2.62 1.81c1.3946846.9650611 3.2465284.9450195 4.62-.05l2.54-1.84z" fill="#e8edfc"/><path id="Shape" d="m59 26.79v28.21c.0016256 1.1545711-.4982905 2.252927-1.37 3.01l-1.96-1.42-20.84-15.09 21.12-15.33 2.32-1.69c.4756112.6763526.7305774 1.4831636.73 2.31z" fill="#cad9fc"/><path id="Shape" d="m56 26.79v28.21c-.0001913.546982-.1125028 1.0881192-.33 1.59l-20.84-15.09 21.12-15.33c.0319486.2051491.048661.4123824.05.62z" fill="#e8edfc"/><path id="Shape" d="m47 18c.0003979 4.5088023-1.7905406 8.83305-4.9787453 12.0212547s-7.5124524 4.9791432-12.0212547 4.9787453c-.500863.002095-1.0015089-.0212685-1.5-.07-8.7725075-.775363-15.4996324-8.1232937-15.4996324-16.93s6.7271249-16.15463697 15.4996324-16.93c.4984911-.04873148.999137-.07209495 1.5-.07 4.5088023-.00039789 8.83305 1.79054062 12.0212547 4.97874531s4.9791432 7.51245239 4.9787453 12.02125469z" fill="#cad9fc"/><ellipse id="Oval" cx="28.5" cy="18" fill="#e8edfc" rx="15.5" ry="16.93"/><path id="Shape" d="m40.08 11.96-10.08 14.66-.35.51c-.3202914.4692499-.8263512.7787109-1.39.85-.086213.0116318-.1730222.0183095-.26.02-.4765651-.0006556-.9373606-.1707955-1.3-.48l-6.24-5.35c-.2018108-.1722342-.3268193-.4176728-.3474549-.6821844-.0206357-.2645116.0647966-.5263675.2374549-.7278156l1.3-1.52c.1722342-.2018108.4176728-.3268193.6821844-.3474549.2645116-.0206357.5263675.0647966.7278156.2374549l4.55 3.9 2.39-3.47 6.78-9.87c.3149766-.45110825.933264-.56675913 1.39-.26l1.65 1.13c.2213065.1502349.3733189.3827557.4221592.6457419.0488403.2629861-.0095505.5345818-.1621592.7542581z" fill="#fff"/><path id="Shape" d="m5 59h3c-2.20754103-.0038531-3.99614691-1.792459-4-4v-28.21c.00617188-1.135816.48867759-2.216919 1.33-2.98l11.19-10.03.01-.01h.0176c1.7829467-6.9650959 7.7607714-12.05126463 14.9215-12.6958-.4852-.0417-.9731-.0742-1.4691-.0742-.500863-.00209495-1.0015089.02126852-1.5.07-7.1735451.632877-13.1669395 5.72343833-14.9524 12.7h-.0176l-.01.01-11.19 10.03c-.84132241.763081-1.32382812 1.844184-1.33 2.98v28.21c.00385309 2.207541 1.79245897 3.9961469 4 4z" fill="#fff"/><path id="Shape" d="m0 55v-13-15.21h2v15.21 13z" fill="#fff"/><g fill="#428dff"><path id="Shape" d="m1 50c-.55162365.0015928-.99840721.4483764-1 1v4h2v-4c-.00159279-.5516236-.44837635-.9984072-1-1z"/><path id="Shape" d="m2 26.79h-2v16.21c0 .5522847.44771525 1 1 1s1-.4477153 1-1z"/><path id="Shape" d="m0 47c.0039589.2647108.10750224.5182135.29.71l.15.12c.05575598.037828.116284.068092.18.09.05666008.0288933.11733597.0491186.18.06.06612874.0112482.13295338.0179306.2.02.26476698-.0036835.51836621-.1072663.71-.29.37745227-.398085.37745227-1.021915 0-1.42-.09566008-.0903288-.20765785-.1616001-.33-.21-.12022231-.051241-.24932274-.07842-.38-.08-.26469083.0040569-.51815919.1075862-.71.29-.18241381.1918408-.28594314.4453092-.29.71z"/><path id="Shape" d="m55 60h-50c-2.76007596-.0032511-4.99674886-2.239924-5-5 0-.5522847.44771525-1 1-1s1 .4477153 1 1c.00181871 1.6561003 1.34389967 2.9981813 3 3h50c1.6561003-.0018187 2.9981813-1.3438997 3-3v-28.21c.0006044-.8525928-.3618191-1.6651181-.9966-2.2343l-11.1909-10.0313.6575-.7544.707-.707 11.16 10.0024c1.0585761.9486964 1.6633135 2.3031191 1.663 3.7246v28.21c-.0032511 2.760076-2.239924 4.9967489-5 5z"/><path id="Shape" d="m1 27.79c-.55228475 0-1-.4477153-1-1-.00041662-1.421888.60456785-2.7767026 1.6636-3.7255l11.1889-10.0293c.4037266-.3632453 1.0229758-.3401313 1.3985.0522.37416.3900573.3678506 1.007668-.0142 1.39l-.01.01-11.2292 10.0673c-.63529575.5693182-.99809429 1.3822328-.9976 2.2353 0 .2652165-.10535684.5195704-.29289322.7071068s-.44189029.2928932-.70710678.2928932z"/><path id="Shape" d="m29.9414 45.0981c-1.0144745.0008912-2.0051363-.3073651-2.84-.8837l-26.3392-18.1817c-.43862753-.3192642-.54268556-.9300391-.23452088-1.3765346.30816467-.4464956.91613816-.5658368 1.37022088-.2689654l26.3394 18.1816c1.0477868.7217143 2.4365898.7050894 3.4668-.0415l25.9785-18.8564c.4469422-.3124512 1.0618115-.2092055 1.3821885.23209.3203769.4412956.2281197 1.0579093-.2073885 1.38611l-25.9785 18.8564c-.8539607.6198518-1.8822916.9533286-2.9375.9526z"/><path id="Shape" d="m57.6289 59.01c-.2103159.0001664-.4152691-.0663541-.5854-.19l-22.8-16.51c-.2917725-.2086077-.4494757-.5575012-.4132938-.9143474.0361818-.3568463.2607065-.6669843.5884132-.812781.3277068-.1457966.7083982-.1049189.9976806.1071284l22.8 16.51c.3513084.2543425.4986157.7061489.3647361 1.1186825-.1338797.4125336-.5184225.6917385-.9521361.6913175z"/><path id="Shape" d="m2.3711 59.01c-.43371365.000421-.81825638-.2787839-.95213606-.6913175s.01342763-.86434.36473606-1.1186825l22.68-16.43c.2892824-.2120473.6699738-.252925.9976806-.1071284.3277067.1457967.5522314.4559347.5884132.812781.0361819.3568462-.1215213.7057397-.4132938.9143474l-22.68 16.43c-.17013085.1236459-.37508407.1901664-.5854.19z"/><path id="Shape" d="m30 36c-9.9411255 0-18-8.0588745-18-18s8.0588745-18 18-18 18 8.0588745 18 18c-.0110223 9.9365563-8.0634437 17.9889777-18 18zm0-34c-8.836556 0-16 7.163444-16 16s7.163444 16 16 16 16-7.163444 16-16c-.0100847-8.83237539-7.1676246-15.98991526-16-16z"/><path id="Shape" d="m28 29c-.7160183-.0001541-1.408388-.2563036-1.9521-.7222l-7-6c-.4192747-.359437-.4678057-.9906985-.1084-1.41l2.6035-3.0371c.3599485-.4182651.9903473-.4667298 1.41-.1084l4.4655 3.8277 9.1093-13.25c.1501665-.21870424.381136-.36871994.6420039-.41698435s.5302214.00918418.7486961.15968435l3.2959 2.2673c.4548471.3127655.5702381.9349279.2578 1.39l-11 16c-.4826654.7010332-1.2400805 1.1643865-2.084 1.2749-.1286955.017014-.2583851.0253994-.3882.0251zm-6.8916-7.59 6.2407 5.3491c.2153412.1845757.4989302.2690289.7801659.2323343.2812357-.0366945.5336613-.1910847.6944341-.4247343l10.4336-15.1761-1.6479-1.1333-9.1729 13.3427c-.1606898.2338839-.4131786.3884861-.6945485.425281-.2813699.036795-.5651233-.0476823-.7805515-.232381l-4.5514-3.9013z"/></g></g></g></svg>