<svg height="512" viewBox="0 0 60 60" width="512" xmlns="http://www.w3.org/2000/svg"><g id="Page-1" fill="none" fill-rule="evenodd"><g id="007---Favourite-Email" fill-rule="nonzero"><path id="Shape" d="m58.27 24.48c-.172698-.2463564-.3741159-.471273-.6-.67l-11.19-10.03-.01-.01h-32.94l-.01.01-11.19 10.03c-.84132241.763081-1.32382812 1.844184-1.33 2.98v28.21c.00385309 2.207541 1.79245897 3.9961469 4 4h50c2.207541-.0038531 3.9961469-1.792459 4-4v-28.21c.0005774-.8268364-.2543888-1.6336474-.73-2.31z" fill="#f0c419"/><path id="Shape" d="m58.27 24.48-23.44 17.02-2.54 1.84c-1.3734716.9950195-3.2253154 1.0150611-4.62.05l-2.62-1.81-23.72-16.37c.22308789-.5363316.56501209-1.0150255 1-1.4l11.19-10.03.01-.01h32.94l.01.01 11.19 10.03c.2258841.198727.427302.4236436.6.67z" fill="#a4c2f7"/><path id="Shape" d="m25.05 41.58-22.68 16.43c-.87170949-.757073-1.37162562-1.8554289-1.37-3.01v-28.21c-.0026412-.544044.10981998-1.0824946.33-1.58z" fill="#e8edfc"/><path id="Shape" d="m57.63 58.01c-.7273468.6384446-1.662196.990346-2.63.99h-50c-.96780405.000346-1.90265323-.3515554-2.63-.99l22.68-16.43 2.62 1.81c1.3946846.9650611 3.2465284.9450195 4.62-.05l2.54-1.84z" fill="#e8edfc"/><path id="Shape" d="m59 26.79v28.21c.0016256 1.1545711-.4982905 2.252927-1.37 3.01l-1.96-1.42-20.84-15.09 21.12-15.33 2.32-1.69c.4756112.6763526.7305774 1.4831636.73 2.31z" fill="#cad9fc"/><path id="Shape" d="m56 26.79v28.21c-.0001913.546982-.1125028 1.0881192-.33 1.59l-20.84-15.09 21.12-15.33c.0319486.2051491.048661.4123824.05.62z" fill="#e8edfc"/><path id="Shape" d="m47 18c.0003979 4.5088023-1.7905406 8.83305-4.9787453 12.0212547s-7.5124524 4.9791432-12.0212547 4.9787453c-.500863.002095-1.0015089-.0212685-1.5-.07-8.7725075-.775363-15.4996324-8.1232937-15.4996324-16.93s6.7271249-16.15463697 15.4996324-16.93c.4984911-.04873148.999137-.07209495 1.5-.07 4.5088023-.00039789 8.83305 1.79054062 12.0212547 4.97874531s4.9791432 7.51245239 4.9787453 12.02125469z" fill="#cad9fc"/><ellipse id="Oval" cx="28.5" cy="18" fill="#e8edfc" rx="15.5" ry="16.93"/><path id="Shape" d="m36.49 19.71c-.2495499.2525435-.3613489.6103006-.3.96l.98 6.04c.0684732.4189857-.1082594.8402942-.4551572 1.0850381-.3468978.2447438-.8030765.2699678-1.1748428.0649619l-5-2.78c-.335801-.1866722-.744199-.1866722-1.08 0l-5 2.78c-.3717663.2050059-.827945.1797819-1.1748428-.0649619-.3468978-.2447439-.5236304-.6660524-.4551572-1.0850381l.98-6.04c.0613489-.3496994-.0504501-.7074565-.3-.96l-4.19-4.32c-.2914062-.2960164-.3924952-.7302939-.2617722-1.1245715.1307231-.3942776.4712384-.6821409.8817722-.7454285l5.71-.88c.364893-.057328.6766546-.2939663.83-.63l2.52-5.37c.1799808-.3901014.5703813-.63993064 1-.63993064s.8200192.24982924 1 .63993064l2.52 5.37c.1533454.3360337.465107.572672.83.63l5.71.88c.4105338.0632876.7510491.3511509.8817722.7454285.130723.3942776.029634.8285551-.2617722 1.1245715z" fill="#fff"/><path id="Shape" d="m5 59h3c-2.20754103-.0038531-3.99614691-1.792459-4-4v-28.21c.00617188-1.135816.48867759-2.216919 1.33-2.98l11.19-10.03.01-.01h.0176c1.7829467-6.9650959 7.7607714-12.05126463 14.9215-12.6958-.4852-.0417-.9731-.0742-1.4691-.0742-.500863-.00209495-1.0015089.02126852-1.5.07-7.1735451.632877-13.1669395 5.72343833-14.9524 12.7h-.0176l-.01.01-11.19 10.03c-.84132241.763081-1.32382812 1.844184-1.33 2.98v28.21c.00385309 2.207541 1.79245897 3.9961469 4 4z" fill="#fff"/><path id="Shape" d="m0 55v-13-15.21h2v15.21 13z" fill="#fff"/><g fill="#428dff"><path id="Shape" d="m1 50c-.55162365.0015928-.99840721.4483764-1 1v4h2v-4c-.00159279-.5516236-.44837635-.9984072-1-1z"/><path id="Shape" d="m2 26.79h-2v16.21c0 .5522847.44771525 1 1 1s1-.4477153 1-1z"/><path id="Shape" d="m0 47c.0039589.2647108.10750224.5182135.29.71l.15.12c.05575598.037828.116284.068092.18.09.05666008.0288933.11733597.0491186.18.06.06612874.0112482.13295338.0179306.2.02.26476698-.0036835.51836621-.1072663.71-.29.37745227-.398085.37745227-1.021915 0-1.42-.09566008-.0903288-.20765785-.1616001-.33-.21-.12022231-.051241-.24932274-.07842-.38-.08-.26469083.0040569-.51815919.1075862-.71.29-.18241381.1918408-.28594314.4453092-.29.71z"/><path id="Shape" d="m55 60h-50c-2.76007596-.0032511-4.99674886-2.239924-5-5 0-.5522847.44771525-1 1-1s1 .4477153 1 1c.00181871 1.6561003 1.34389967 2.9981813 3 3h50c1.6561003-.0018187 2.9981813-1.3438997 3-3v-28.21c.0004389-.8526626-.3621653-1.6651853-.9971-2.2343l-11.19-10.0313 1.33-1.4941 11.195 10.0351c1.057907.9491032 1.6622367 2.3033456 1.6621 3.7246v28.21c-.0032511 2.760076-2.239924 4.9967489-5 5z"/><path id="Shape" d="m1 27.79c-.55228475 0-1-.4477153-1-1-.0000488-1.4217047.60466227-2.7763142 1.6631-3.7255l11.1885-10.0293c.4108105-.3703902 1.0437237-.3391021 1.416.07.1778829.1947712.2710363.4522705.258938.7157696s-.1284557.511379-.323438.6890304l-.0107.01-11.1944 10.0347c-.63535999.5693073-.99829072 1.3821921-.998 2.2353 0 .5522847-.44771525 1-1 1z"/><path id="Shape" d="m29.9414 45.0981c-1.0144524.0007453-2.0050718-.3074977-2.84-.8837l-26.3397-18.1817c-.29705818-.2018047-.4630944-.5474014-.4349953-.9054226.02809911-.3580211.2460182-.6734833.57092228-.8264736.32490408-.1529904.70689574-.1200132 1.00077302.0863962l26.34 18.1816c1.0477123.7207625 2.4356466.7041432 3.4658-.0415l25.9774-18.8564c.2890636-.2100365.6682225-.2499045.9946512-.1045864.3264287.1453182.5505349.4537454.5879.8091001.0373651.3553546-.1176876.7036499-.4067512.9136863l-25.9774 18.8564c-.8543247.6199552-1.8830364.9534306-2.9386.9526z"/><path id="Shape" d="m57.6289 59.01c-.2104586.0000935-.4155489-.0664148-.5859-.19l-22.8-16.51c-.4473506-.3241359-.5472358-.9495493-.2230999-1.3969.3241359-.4473506.9495493-.5472359 1.3968999-.2231l22.8 16.51c.3513836.2543964.4986711.7063327.3646597 1.1189208-.1340113.4125881-.5187538.6917176-.9525597.6910792z"/><path id="Shape" d="m2.3711 59.01c-.43380588.0006384-.81854839-.2784911-.95255973-.6910792s.01327611-.8645244.36465973-1.1189208l22.68-16.43c.2893851-.2096792.6686505-.2490456.9949306-.1032703.32628.1457753.550005.4545455.5869.81.0368949.3554545-.1186455.7035911-.4080306.9132703l-22.68 16.43c-.1703511.1235852-.37544144.1900935-.5859.19z"/><path id="Shape" d="m30 36c-9.9411255 0-18-8.0588745-18-18s8.0588745-18 18-18 18 8.0588745 18 18c-.0113522 9.9364195-8.0635805 17.9886478-18 18zm0-34c-8.836556 0-16 7.163444-16 16s7.163444 16 16 16 16-7.163444 16-16c-.0100847-8.83237539-7.1676246-15.98991526-16-16z"/><path id="Shape" d="m36.0742 29c-.3582947-.0005706-.7105256-.0925003-1.0234-.2671l-5-2.7744c-.0319364-.0175972-.0706636-.0175972-.1026 0l-4.999 2.7744c-.7073453.3915485-1.5762696.3442887-2.2369762-.1216665-.6607067-.4659553-.9969081-1.2685956-.8655238-2.0663335l.9814-6.0386c.0058808-.0359588-.005704-.0725698-.0312-.0986l-4.1969-4.3193c-.5513198-.5667456-.7400983-1.3938701-.4892654-2.1436948.2508328-.7498246.8993017-1.2968715 1.6806654-1.4178052l5.7061-.8755c.0358262-.0063606.0663706-.0296413.082-.0625l2.5117-5.3731c.3461631-.74183746 1.0907313-1.215973 1.9093592-1.21586581.818628.0001072 1.563072.47443772 1.9090408 1.21636581l2.5127 5.3726c.0146755.0327014.0446712.055948.08.062l5.707.876c.7813217.1212184 1.4296215.6684461 1.6802908 1.4183276.2506692.7498816.0617724 1.5769661-.4895908 2.1436724l-4.1983 4.3188c-.0246638.0263235-.0357424.0625874-.03.0982l.9814 6.04c.0992317.6106642-.0739047 1.2341585-.4737963 1.7062226-.3998916.472064-.9864346.7453562-1.6051037.7478774zm-6.0742-5.0562c.3570655.0003635.7081355.0918137 1.02.2657l5.001 2.7744c.0345924.0218533.0792118.019488.1113-.0059.038207-.0226429.0569021-.0677718.0459-.1108l-.9814-6.04c-.1057241-.6603165.1054283-1.3318921.57-1.8129l4.1992-4.3194c.0322932-.0296146.0424637-.0763427.0254-.1167-.0097659-.0407147-.0443193-.070728-.086-.0747l-5.7054-.8756c-.6962281-.1054387-1.2932692-.5528064-1.59-1.1914l-2.5137-5.373v-.0005c-.02-.044-.1738-.044-.1934 0l-2.5127 5.3735c-.2977211.6386357-.8951808 1.0859986-1.5918 1.1919l-5.705.875c-.0416807.003972-.0762341.0339853-.086.0747-.0172025.0401845-.0070001.0868581.0254.1162l4.1982 4.32c.4653752.4805686.6770725 1.1523454.5713 1.8129l-.9814 6.0391c-.0110749.0433143.0075844.0887632.0459.1118.0320882.025388.0767076.0277533.1113.0059l5-2.7744c.3125252-.1739657.6642187-.2654425 1.0219-.2658z"/></g></g></g></svg>