<svg height="512" viewBox="0 0 60 60" width="512" xmlns="http://www.w3.org/2000/svg"><g id="Page-1" fill="none" fill-rule="evenodd"><g id="019---Delete-Email" fill-rule="nonzero"><path id="Shape" d="m58.27 24.48c-.172698-.2463564-.3741159-.471273-.6-.67l-11.19-10.03-.01-.01h-32.94l-.01.01-11.19 10.03c-.84132241.763081-1.32382812 1.844184-1.33 2.98v28.21c.00385309 2.207541 1.79245897 3.9961469 4 4h50c2.207541-.0038531 3.9961469-1.792459 4-4v-28.21c.0005774-.8268364-.2543888-1.6336474-.73-2.31z" fill="#f0c419"/><path id="Shape" d="m58.27 24.48-23.44 17.02-2.54 1.84c-1.3734716.9950195-3.2253154 1.0150611-4.62.05l-2.62-1.81-23.72-16.37c.22308789-.5363316.56501209-1.0150255 1-1.4l11.19-10.03.01-.01h32.94l.01.01 11.19 10.03c.2258841.198727.427302.4236436.6.67z" fill="#a4c2f7"/><path id="Shape" d="m25.05 41.58-22.68 16.43c-.87170949-.757073-1.37162562-1.8554289-1.37-3.01v-28.21c-.0026412-.544044.10981998-1.0824946.33-1.58z" fill="#e8edfc"/><path id="Shape" d="m57.63 58.01c-.7273468.6384446-1.662196.990346-2.63.99h-50c-.96780405.000346-1.90265323-.3515554-2.63-.99l22.68-16.43 2.62 1.81c1.3946846.9650611 3.2465284.9450195 4.62-.05l2.54-1.84z" fill="#e8edfc"/><path id="Shape" d="m59 26.79v28.21c.0016256 1.1545711-.4982905 2.252927-1.37 3.01l-1.96-1.42-20.84-15.09 21.12-15.33 2.32-1.69c.4756112.6763526.7305774 1.4831636.73 2.31z" fill="#cad9fc"/><path id="Shape" d="m56 26.79v28.21c-.000146.5469867-.1124594 1.088133-.33 1.59l-20.84-15.09 21.12-15.33c.0319486.2051491.048661.4123824.05.62z" fill="#e8edfc"/><path id="Shape" d="m47 18c.0003979 4.5088023-1.7905406 8.83305-4.9787453 12.0212547s-7.5124524 4.9791432-12.0212547 4.9787453c-.500863.002095-1.0015089-.0212685-1.5-.07-8.7725075-.775363-15.4996324-8.1232937-15.4996324-16.93s6.7271249-16.15463697 15.4996324-16.93c.4984911-.04873148.999137-.07209495 1.5-.07 4.5088023-.00039789 8.83305 1.79054062 12.0212547 4.97874531s4.9791432 7.51245239 4.9787453 12.02125469z" fill="#cad9fc"/><ellipse id="Oval" cx="28.5" cy="18" fill="#e8edfc" rx="15.5" ry="16.93"/><path id="Shape" d="m38 14-1.88 14.08c-.0509012.512382-.4752666.9067417-.99.92h-10.26c-.5147334-.0132583-.9390988-.407618-.99-.92l-1.88-14.08z" fill="#fff"/><path id="Shape" d="m40 13c-.0080061 1.1012362-.8987638 1.9919939-2 2h-16c-1.1032246-.0032402-1.9967598-.8967754-2-2 .0080061-1.1012362.8987638-1.9919939 2-2h16c1.1032246.0032402 1.9967598.8967754 2 2z" fill="#fff"/><path id="Shape" d="m5 59h3c-2.20754103-.0038531-3.99614691-1.792459-4-4v-28.21c.00624574-1.1358.48873878-2.2168747 1.33-2.98l11.19-10.03.01-.01h.0176c1.7829343-6.96506374 7.7607094-12.05122434 14.9214-12.6958-.4851-.0417-.973-.0742-1.469-.0742-.500863-.00209495-1.0015089.02126852-1.5.07-7.1735207.63293517-13.166886 5.72347175-14.9524 12.7h-.0176l-.01.01-11.19 10.03c-.84126122.7631253-1.32375426 1.8442-1.33 2.98v28.21c.00385309 2.207541 1.79245897 3.9961469 4 4z" fill="#fff"/><path id="Shape" d="m0 55v-13-15.21h2v15.21 13z" fill="#fff"/><g fill="#428dff"><path id="Shape" d="m1 50c-.55162365.0015928-.99840721.4483764-1 1v4h2v-4c-.0016474-.5516009-.44839907-.9983526-1-1z"/><path id="Shape" d="m2 26.79h-2v16.21c0 .5522847.44771525 1 1 1s1-.4477153 1-1z"/><path id="Shape" d="m0 47c.0039589.2647108.10750224.5182135.29.71l.15.12c.05575598.037828.116284.068092.18.09.05666008.0288933.11733597.0491186.18.06.06612874.0112482.13295338.0179306.2.02.26476698-.0036835.51836621-.1072663.71-.29.37745227-.398085.37745227-1.021915 0-1.42-.09566008-.0903288-.20765785-.1616001-.33-.21-.12022231-.051241-.24932274-.07842-.38-.08-.26469083.0040569-.51815919.1075862-.71.29-.18241381.1918408-.28594314.4453092-.29.71z"/><path id="Shape" d="m55 60h-50c-2.76007596-.0032511-4.99674886-2.239924-5-5 0-.5522847.44771525-1 1-1s1 .4477153 1 1c.00181871 1.6561003 1.34389967 2.9981813 3 3h50c1.6561003-.0018187 2.9981813-1.3438997 3-3v-28.21c.0004389-.8526626-.3621653-1.6651853-.9971-2.2343l-11.19-10.0313 1.33-1.4941 11.195 10.0351c1.057907.9491032 1.6622367 2.3033456 1.6621 3.7246v28.21c-.0032511 2.760076-2.239924 4.9967489-5 5z"/><path id="Shape" d="m1 27.79c-.55228475 0-1-.4477153-1-1-.0000488-1.4217047.60466227-2.7763142 1.6631-3.7255l11.1885-10.0293c.4109693-.369944 1.0435217-.3386738 1.416.07.1778829.1947712.2710363.4522705.258938.7157696s-.1284557.511379-.323438.6890304l-.0107.01-11.1944 10.0347c-.63535999.5693073-.99829072 1.3821921-.998 2.2353 0 .5522847-.44771525 1-1 1z"/><path id="Shape" d="m29.9414 45.0981c-1.0144524.0007453-2.0050718-.3074977-2.84-.8837l-26.3397-18.1817c-.29705818-.2018047-.4630944-.5474014-.4349953-.9054226.02809911-.3580211.2460182-.6734833.57092228-.8264736.32490408-.1529904.70689574-.1200132 1.00077302.0863962l26.34 18.1816c1.0477123.7207625 2.4356466.7041432 3.4658-.0415l25.9774-18.8564c.2890636-.2100365.6682225-.2499045.9946512-.1045864.3264287.1453182.5505349.4537454.5879.8091001.0373651.3553546-.1176876.7036499-.4067512.9136863l-25.9774 18.8564c-.8543247.6199552-1.8830364.9534306-2.9386.9526z"/><path id="Shape" d="m57.6289 59.01c-.2104586.0000935-.4155489-.0664148-.5859-.19l-22.8-16.51c-.4473506-.3241359-.5472358-.9495493-.2230999-1.3969.3241359-.4473506.9495493-.5472359 1.3968999-.2231l22.8 16.51c.3513836.2543964.4986711.7063327.3646597 1.1189208-.1340113.4125881-.5187538.6917176-.9525597.6910792z"/><path id="Shape" d="m2.3711 59.01c-.43380588.0006384-.81854839-.2784911-.95255973-.6910792s.01327611-.8645244.36465973-1.1189208l22.68-16.43c.2893851-.2096792.6686505-.2490456.9949306-.1032703.32628.1457753.550005.4545455.5869.81.0368949.3554545-.1186455.7035911-.4080306.9132703l-22.68 16.43c-.1703511.1235852-.37544144.1900935-.5859.19z"/><path id="Shape" d="m30 36c-9.9411255 0-18-8.0588745-18-18s8.0588745-18 18-18 18 8.0588745 18 18c-.0113522 9.9364195-8.0635805 17.9886478-18 18zm0-34c-8.836556 0-16 7.163444-16 16s7.163444 16 16 16 16-7.163444 16-16c-.0100847-8.83237539-7.1676246-15.98991526-16-16z"/><path id="Shape" d="m38 16h-16c-1.6568542 0-3-1.3431458-3-3s1.3431458-3 3-3h16c1.6568542 0 3 1.3431458 3 3s-1.3431458 3-3 3zm-16-4c-.5522847 0-1 .4477153-1 1s.4477153 1 1 1h16c.5522847 0 1-.4477153 1-1s-.4477153-1-1-1z"/><path id="Shape" d="m33.999 12c-.4584424-.0001772-.857888-.3124515-.9687-.7573l-.6211-2.4849c-.1112117-.445502-.5115268-.75801748-.9707-.7578h-2.877c-.4591732-.00021748-.8594883.312298-.9707.7578l-.6208 2.4849c-.0784727.3553596-.343802.6400343-.6927699.7432804-.3489679.1032462-.7264756.0087622-.9856657-.2466959-.2591901-.2554582-.3591389-.631556-.2609644-.9819845l.6211-2.4848c.3322486-1.33630922 1.5328071-2.27392318 2.9098-2.2725h2.877c1.3770675-.00151519 2.5777335.9361183 2.91 2.2725l.6211 2.4848c.0747644.2988423.0076221.6154645-.1819972.858242-.1896193.2427776-.4805502.3846116-.7886028.384458z"/><path id="Shape" d="m35.1328 30h-10.2656c-.9937832-.0042405-1.8352911-.7340999-1.98-1.7173l-1.8772-13.1411c-.0782035-.5467619.3016381-1.0533965.8484-1.1316s1.0533965.3016381 1.1316.8484l1.8772 13.1416h10.2656l1.8772-13.1416c.0505888-.3536929.2860277-.6535299.6176292-.7865651.3316015-.1330353.7089873-.0790577.99.1416.2810127.2206576.4229596.5744722.3723708.9281651l-1.8767 13.1416c-.1449609.9831883-.9866905 1.7128432-1.9805 1.7168z"/><path id="Shape" d="m27.999 26c-.4883611-.0005179-.904916-.3536997-.9853-.8354l-1-6c-.0843048-.5415034.2829361-1.0499815.823487-1.1401921.5405509-.0902105 1.0530074.2714581 1.149113.8109921l1 6c.0481642.2900981-.0337089.5866973-.2238704.8110081-.1901614.2243108-.4693604.3536252-.7634296.3535919z"/><path id="Shape" d="m32.001 26c-.2940692.0000333-.5732682-.1292811-.7634296-.3535919-.1901615-.2243108-.2720346-.52091-.2238704-.8110081l1-6c.0961056-.539534.6085621-.9012026 1.149113-.8109921.5405509.0902106.9077918.5986887.823487 1.1401921l-1 6c-.080384.4817003-.4969389.8348821-.9853.8354z"/></g></g></g></svg>